<mxfile host="app.diagrams.net" modified="2024-02-21T11:50:34.636Z" agent="Mozilla/5.0 (X11; Linux x86_64; rv:122.0) Gecko/20100101 Firefox/122.0" version="23.1.5" etag="1eXD0b6g3ZzL68SPld1_" type="github">
  <diagram name="Page-1" id="Ji-41a3QaszmXNnsaQns">
    <mxGraphModel>
      <root>
        <mxCell id="0" />
        <mxCell id="1" parent="0" />
      </root>
    </mxGraphModel>
  </diagram>
</mxfile>
